# xmcd CD database file
#
# Track frame offsets:
#	150
#	9031
#	19914
#	29397
#	43160
#	52807
#	68575
#	82218
#	96061
#	108861
#	122790
#
# Disc length: 1846 seconds
#
# Revision: 0
# Processed by: cddbd v1.5.2PL0 Copyright (c) Steve Scherf et al.
# Submitted via: CDex 1.70beta2
#
DISCID=8007340b
DTITLE=Walker and The Texas Dangers - Pay the Fiddler
DYEAR=2010
DGENRE=Country
TTITLE0=Cow Ate the Cabbage
TTITLE1=Halflives
TTITLE2=Rooster's Rant
TTITLE3=Dirt and Words
TTITLE4=Ballad of Bill the Cat
TTITLE5=Waco St. Blues
TTITLE6=Grass is Always Greener
TTITLE7=Shotgun Weddin
TTITLE8=Love My Baby
TTITLE9=Headcase
TTITLE10=Face the Music
EXTD=YEAR: 2010
EXTT0=
EXTT1=
EXTT2=
EXTT3=
EXTT4=
EXTT5=
EXTT6=
EXTT7=
EXTT8=
EXTT9=
EXTT10=
PLAYORDER=
